<?xml version="1.0" encoding="UTF-8" standalone="no"?>
<!-- Created with Inkscape (http://www.inkscape.org/) -->
<svg
   xmlns:svg="http://www.w3.org/2000/svg"
   xmlns="http://www.w3.org/2000/svg"
   xmlns:xlink="http://www.w3.org/1999/xlink"
   version="1.0"
   width="419"
   height="378"
   id="svg2">
  <defs
     id="defs4">
    <linearGradient
       id="linearGradient3235">
      <stop
         id="stop3237"
         style="stop-color:#fff7e6;stop-opacity:1"
         offset="0" />
      <stop
         id="stop3243"
         style="stop-color:#ffdbab;stop-opacity:1"
         offset="1" />
    </linearGradient>
    <radialGradient
       cx="2800.1421"
       cy="454.27856"
       r="322.79306"
       fx="2800.1421"
       fy="454.27856"
       id="radialGradient3249"
       xlink:href="#linearGradient3235"
       gradientUnits="userSpaceOnUse"
       gradientTransform="matrix(1.1112356,-0.6968052,0.3026845,0.4827126,1817.8671,2784.9575)" />
    <radialGradient
       cx="2800.1421"
       cy="454.27856"
       r="322.79306"
       fx="2800.1421"
       fy="454.27856"
       id="radialGradient2403"
       xlink:href="#linearGradient3235"
       gradientUnits="userSpaceOnUse"
       gradientTransform="matrix(1.1112356,-0.6968052,0.3026845,0.4827126,-517.5057,2239.3376)" />
  </defs>
  <path
     d="M 118.5475,69.92221 L 205.111,10.60722 C 247.394,-18.36591 323.2226,18.70175 374.3713,93.34752 C 425.5201,167.9933 432.7154,252.08979 390.4324,281.06292 L 303.8688,340.37789"
     id="path3181"
     style="fill:url(#radialGradient2403);fill-rule:nonzero;stroke:#000000;stroke-width:1.5;stroke-linecap:round;stroke-linejoin:miter;stroke-miterlimit:4" />
  <path
     d="M 287.8668,152.62212 C 339.0155,227.26789 346.2108,311.36437 303.9278,340.33749 C 261.6448,369.31059 185.8161,332.24294 134.6674,257.59722 C 83.5187,182.95144 76.3234,98.85495 118.6064,69.88182 C 160.8894,40.90869 236.7181,77.97634 287.8668,152.62212 z"
     id="path3247"
     style="fill:#ffdbab;fill-rule:nonzero;stroke:#000000;stroke-width:1.5;stroke-linecap:round;stroke-linejoin:miter;stroke-miterlimit:4" />
  <path
     d="M 189.5488,219.9914 C 220.9922,265.87939 223.7713,318.70382 195.7522,337.90299 C 167.7331,357.10219 119.4737,335.44174 88.0304,289.55377 C 56.5871,243.66583 53.808,190.84142 81.8271,171.64218 C 109.8462,152.44299 158.1056,174.10345 189.5488,219.9914 z M 81.3715,171.95442 L 146.2329,127.51013 C 174.252,108.31089 222.5114,129.97135 253.9547,175.8593 C 285.398,221.74729 288.1771,274.57172 260.158,293.77094 L 195.2965,338.21519"
     id="path2398"
     style="fill:#ffffb8;fill-rule:nonzero;stroke:#000000;stroke-width:1.5;stroke-linecap:round;stroke-linejoin:miter;stroke-miterlimit:4" />
  <path
     d="M 90.1423,288.10678 C 105.9838,311.22576 107.9208,337.47164 94.4658,346.69129 C 81.0108,355.91094 57.2338,344.63024 41.3922,321.51119 C 25.5506,298.39212 23.6136,272.14627 37.0687,262.92662 C 50.5237,253.70698 74.3006,264.98768 90.1423,288.10678 z M 36.0165,263.64757 L 104.4535,216.75326 C 117.9085,207.53363 141.6855,218.81432 157.5271,241.93339 C 173.3687,265.05241 175.3056,291.2983 161.8506,300.51794 L 93.4137,347.41224"
     id="path3211"
     style="fill:#dbd9eb;fill-rule:nonzero;stroke:#000000;stroke-width:1.5;stroke-linecap:round;stroke-linejoin:miter;stroke-miterlimit:4" />
  <path
     d="M 6.1028,345.69214 C 7.4064,347.59469 7.4988,349.80049 6.3088,350.61589 C 5.1188,351.43129 3.0951,350.54894 1.7914,348.64639 C 0.4878,346.74384 0.3954,344.53799 1.5854,343.72264 C 2.7754,342.90724 4.7991,343.78959 6.1028,345.69214 z M 1.284,343.92919 L 61.709,302.5248 C 62.899,301.70941 64.9228,302.59175 66.2264,304.4943 C 67.5301,306.39686 67.6224,308.60268 66.4324,309.41806 L 6.0074,350.82244"
     id="path3186"
     style="fill:#b8c5de;fill-rule:nonzero;stroke:#000000;stroke-width:1.5;stroke-linecap:round;stroke-linejoin:miter;stroke-miterlimit:4" />
  <path
     d="M 27.3041,376.51204 L 15.9604,376.51204 L 15.9604,374.13704 L 20.1791,374.13704 L 20.1791,358.54329 L 15.9604,358.54329 L 15.9604,356.41829 C 17.5541,356.41829 18.7286,356.19174 19.4838,355.73859 C 20.239,355.28549 20.6635,354.42874 20.7573,353.16829 L 23.1791,353.16829 L 23.1791,374.13704 L 27.3041,374.13704 L 27.3041,376.51204 z"
     id="text3275"
     style="fill:#000000" />
  <path
     d="M 117.683,376.71519 L 103.3237,376.71519 L 103.3237,373.44954 C 104.3549,372.47039 105.3289,371.53289 106.2455,370.63704 C 107.1622,369.74124 108.058,368.80894 108.933,367.84019 C 110.7039,365.89224 111.9122,364.33239 112.558,363.16049 C 113.2039,361.98864 113.5268,360.77769 113.5268,359.52769 C 113.5268,358.88184 113.4252,358.31414 113.2221,357.82454 C 113.019,357.33499 112.7403,356.92874 112.3862,356.60579 C 112.0216,356.29329 111.5997,356.05894 111.1205,355.90269 C 110.6414,355.74644 110.1153,355.66829 109.5424,355.66829 C 108.9903,355.66829 108.4304,355.73864 107.8627,355.87924 C 107.295,356.01989 106.7507,356.19434 106.2299,356.40269 C 105.7924,356.57979 105.3705,356.79329 104.9643,357.04329 C 104.558,357.29329 104.2299,357.50684 103.9799,357.68394 L 103.808,357.68394 L 103.808,354.37144 C 104.4539,354.04854 105.3523,353.73344 106.5033,353.42609 C 107.6544,353.11884 108.7455,352.96519 109.7768,352.96519 C 111.9434,352.96519 113.6414,353.54069 114.8705,354.69174 C 116.0997,355.84279 116.7143,357.40269 116.7143,359.37144 C 116.7143,360.27769 116.6075,361.11624 116.394,361.88704 C 116.1804,362.65789 115.8861,363.37144 115.5112,364.02769 C 115.1257,364.70474 114.6622,365.37664 114.1205,366.04329 C 113.5789,366.70999 113.0059,367.36624 112.4018,368.01204 C 111.4226,369.07454 110.3315,370.17874 109.1283,371.32454 C 107.9252,372.47039 106.9643,373.37664 106.2455,374.04329 L 117.683,374.04329 L 117.683,376.71519 z"
     id="text3279"
     style="fill:#000000" />
  <path
     d="M 198.7847,355.66829 C 198.2222,355.66829 197.6597,355.73604 197.0972,355.87144 C 196.5347,356.00684 195.9826,356.18394 195.441,356.40269 C 194.941,356.61104 194.5061,356.82979 194.1363,357.05894 C 193.7665,357.28809 193.4358,357.50164 193.1441,357.69954 L 192.9566,357.69954 L 192.9566,354.40269 C 193.6337,354.03809 194.5529,353.70739 195.7144,353.41049 C 196.8759,353.11364 197.9826,352.96519 199.0347,352.96519 C 200.0868,352.96519 201.0061,353.07194 201.7925,353.28549 C 202.579,353.49904 203.2899,353.82979 203.9253,354.27769 C 204.6128,354.77769 205.1311,355.38184 205.48,356.09019 C 205.829,356.79854 206.0035,357.62664 206.0035,358.57454 C 206.0035,359.85579 205.5816,360.98079 204.7378,361.94954 C 203.8941,362.91829 202.8837,363.53289 201.7066,363.79329 L 201.7066,364.01204 C 202.1962,364.10579 202.7196,364.26724 203.2769,364.49644 C 203.8342,364.72559 204.3524,365.06414 204.8316,365.51204 C 205.3107,365.95999 205.7014,366.53549 206.0035,367.23859 C 206.3055,367.94174 206.4566,368.79849 206.4566,369.80894 C 206.4566,370.86099 206.2769,371.82714 205.9175,372.70734 C 205.5581,373.58759 205.0503,374.36619 204.3941,375.04329 C 203.717,375.75164 202.8993,376.28809 201.941,376.65269 C 200.9826,377.01724 199.8941,377.19954 198.6753,377.19954 C 197.5087,377.19954 196.3524,377.05894 195.2066,376.77769 C 194.0608,376.49644 193.0972,376.15789 192.316,375.76204 L 192.316,372.46519 L 192.5347,372.46519 C 193.191,372.94434 194.0712,373.40269 195.1753,373.84019 C 196.2795,374.27769 197.3837,374.49644 198.4878,374.49644 C 199.1233,374.49644 199.7613,374.39484 200.4019,374.19174 C 201.0425,373.98859 201.5764,373.65789 202.0035,373.19954 C 202.4201,372.74119 202.7378,372.23599 202.9566,371.68394 C 203.1753,371.13184 203.2847,370.43394 203.2847,369.59019 C 203.2847,368.74644 203.1623,368.05374 202.9175,367.51204 C 202.6727,366.97039 202.3316,366.54329 201.8941,366.23079 C 201.4566,365.91829 200.9384,365.70214 200.3394,365.58234 C 199.7404,365.46259 199.092,365.40269 198.3941,365.40269 L 197.066,365.40269 L 197.066,362.80894 L 198.0972,362.80894 C 199.5035,362.80894 200.6467,362.47559 201.5269,361.80894 C 202.4071,361.14229 202.8472,360.17354 202.8472,358.90269 C 202.8472,358.31934 202.7326,357.81674 202.5035,357.39484 C 202.2743,356.97299 201.9826,356.63704 201.6285,356.38704 C 201.2326,356.11624 200.7951,355.92874 200.316,355.82454 C 199.8368,355.72039 199.3264,355.66829 198.7847,355.66829 L 198.7847,355.66829 z"
     id="text3283"
     style="fill:#000000" />
  <path
     d="M 296.4722,368.47299 L 293.7066,368.47299 L 293.7066,376.47299 L 290.7066,376.47299 L 290.7066,368.47299 L 280.4253,368.47299 L 280.4253,365.19174 L 290.8316,353.20734 L 293.7066,353.20734 L 293.7066,365.97299 L 296.4722,365.97299 L 296.4722,368.47299 z M 290.7066,365.97299 L 290.7066,356.87924 L 282.8628,365.97299 L 290.7066,365.97299 z"
     id="text3287"
     style="fill:#000000" />
</svg>
